inDegrees=no
num_controls=7
num_derivatives=13
num_iterations=110
num_multipliers=7
num_parameters=0
num_slacks=7
num_states=26
objective=0.451057
objective_accelerations=0.044230
objective_balance=0.007631
objective_effort=0.035127
objective_height=0.359060
objective_ligament=0.005009
solver_duration=1785.072779
status=Solve_Succeeded
success=true
DataType=double
version=3
OpenSimVersion=4.5
endheader
time	/jointset/ground_pelvis/pelvis_tilt/value	/jointset/ground_pelvis/pelvis_tx/value	/jointset/ground_pelvis/pelvis_ty/value	/jointset/hip_l/hip_flexion_l/value	/jointset/hip_l/hip_adduction_l/value	/jointset/hip_l/hip_rotation_l/value	/jointset/back/lumbar_extension/value	/jointset/patellofemoral_l/patellar_flexion_l/value	/jointset/knee_l/knee_flexion_l/value	/jointset/knee_l/knee_adduction_l/value	/jointset/knee_l/knee_rotation_l/value	/jointset/ankle_l/ankle_angle_l/value	/jointset/subtalar_l/subtalar_angle_l/value	/jointset/ground_pelvis/pelvis_tilt/speed	/jointset/ground_pelvis/pelvis_tx/speed	/jointset/ground_pelvis/pelvis_ty/speed	/jointset/hip_l/hip_flexion_l/speed	/jointset/hip_l/hip_adduction_l/speed	/jointset/hip_l/hip_rotation_l/speed	/jointset/back/lumbar_extension/speed	/jointset/patellofemoral_l/patellar_flexion_l/speed	/jointset/knee_l/knee_flexion_l/speed	/jointset/knee_l/knee_adduction_l/speed	/jointset/knee_l/knee_rotation_l/speed	/jointset/ankle_l/ankle_angle_l/speed	/jointset/subtalar_l/subtalar_angle_l/speed	/forceset/tau_hip_flexion_l	/forceset/tau_hip_adduction_l	/forceset/tau_hip_rotation_l	/forceset/tau_knee_flexion_l	/forceset/tau_ankle_angle_l	/forceset/tau_subtalar_angle_l	/forceset/tau_lumbar_extension	lambda_cid13_p0	lambda_cid13_p1	lambda_cid13_p2	lambda_cid13_p3	lambda_cid13_p4	lambda_cid13_p5	lambda_cid14_p0	/jointset/ground_pelvis/pelvis_tilt/accel	/jointset/ground_pelvis/pelvis_tx/accel	/jointset/ground_pelvis/pelvis_ty/accel	/jointset/hip_l/hip_flexion_l/accel	/jointset/hip_l/hip_adduction_l/accel	/jointset/hip_l/hip_rotation_l/accel	/jointset/back/lumbar_extension/accel	/jointset/patellofemoral_l/patellar_flexion_l/accel	/jointset/knee_l/knee_flexion_l/accel	/jointset/knee_l/knee_adduction_l/accel	/jointset/knee_l/knee_rotation_l/accel	/jointset/ankle_l/ankle_angle_l/accel	/jointset/subtalar_l/subtalar_angle_l/accel	gamma_cid13_p0	gamma_cid13_p1	gamma_cid13_p2	gamma_cid13_p3	gamma_cid13_p4	gamma_cid13_p5	gamma_cid14_p0
0.5	-0.4409763798618118	-0.07240512534106786	0.7777576629043004	1.203594647978649	-0.3088492951867792	-0.07479041525904594	-0.3239269542397921	0.6097850606996124	0.6097850606999645	-0.1740266335666373	0.1744622919928019	0.007633281553846567	-0.05312876224823301	-0.737533541533083	-0.2785209521260689	-0.4364285526812127	2.217630736963209	-0.05286095474400691	0.5428846192414771	-0.6257870400537674	1.571085153704713	1.571085153704898	-0.003023043197519083	0.0003996487205460267	0.1676282212880895	-0.03723759667720253	-0.2400289740462794	0.016433547228866	-0.01981466150021573	-0.1891658037048899	0.1458885507878182	0.04390806145762152	0.2162415301820858	7.816539774105699	-23.41327704454029	6.728904752240153	-4.481851052401607	-609.1732442439584	-62.24827952180414	-32.63050565455951	0.5350581533802147	0.6316864238323493	-0.2619453394315906	-1.393336068118563	0.4933838027334052	-0.2478879856537909	1.632445629901006	-0.9312563308776511	-0.9312563308776397	0.02918021793301076	-0.02984339985206674	0.003970405930290149	0.4848604952406254	-1.392411615678348e-08	-9.153172497917128e-07	1.822876073479645e-07	-1.286040069207891e-07	-1.557175830280127e-07	-4.523663962239906e-08	-1.360231491622512e-07
0.51	-0.448323474201984	-0.07515841650175224	0.7733811698884189	1.225697558344499	-0.3093541583030289	-0.06937562762840291	-0.3301030734365401	0.6254471967369163	0.625447196737337	-0.1740565879284275	0.1744662408977347	0.009309165001445921	-0.05347787684319945	-0.7317917104740129	-0.2721109296759069	-0.4387827875582159	2.202660305500873	-0.0481232422969932	0.5400077942420541	-0.6093675088191833	1.561127728446317	1.561127728446427	-0.002973677851962537	0.0003873748796595432	0.1675111769927177	-0.03259853628304205	-0.2479285004904603	0.01730354971760415	-0.01987380084655506	-0.1901467355540438	0.1459515512973249	0.04459614127002005	0.2223421912988691	7.62408318146595	-23.57384210275797	6.635058858395089	-4.520263251409188	-613.1644323779564	-61.87484103462253	-31.82024810541747	0.6077784968166902	0.6495877950450608	-0.2091037633313247	-1.592563001435027	0.4623250663869324	-0.3174880217072399	1.657100441762943	-1.060107395407752	-1.060107395419015	-0.008212907142191155	0.01258140245338999	-0.02514356966320718	0.4515649523159889	-2.000332464200247e-08	-8.652935817012458e-07	1.902172650364644e-07	-1.202679257070291e-07	-1.498505717438183e-07	-3.129422813201365e-08	-1.335641402485342e-07
0.52	-0.4556103436486371	-0.07784682191004769	0.7689837462834679	1.247642031132495	-0.3098119722746684	-0.0639915899006797	-0.3361129186066375	0.641003334167226	0.6410033341677026	-0.174086254156777	0.1744699672199739	0.01098275766161282	-0.05378097360606183	-0.7254885628290905	-0.2655438016482752	-0.4406146704950839	2.185943221392778	-0.04345112582191418	0.5367346386578052	-0.5925322347235643	1.549885432304433	1.549885432304467	-0.002965416506770947	0.0003551321851875677	0.1671700638016545	-0.02803403025639172	-0.2558280269346501	0.01817355220633649	-0.01993294019301296	-0.1911276674031824	0.1460145518068313	0.04528422108241293	0.2284428524156448	7.42349801069474	-23.7349099180128	6.543493047449139	-4.541655732394251	-617.2825191307716	-61.54786362601866	-30.99098673401979	0.6473214705507143	0.663107539326286	-0.1574749514045365	-1.742666597270357	0.4802646083464675	-0.3271541026189264	1.715594202107982	-1.188230507575454	-1.188230507575523	0.02095941786003205	-0.03383717056917133	-0.04084337320800716	0.4699496217385902	-2.532562861849978e-08	-8.123865192881219e-07	1.980909546759832e-07	-1.116090725217334e-07	-1.430630356793771e-07	-1.791553674247095e-08	-1.304159330261609e-07
0.53	-0.4628314758278506	-0.08046883290572007	0.7645706362093628	1.269410794755555	-0.3102233765690962	-0.05864217366927914	-0.3419523893165398	0.6564407180897663	0.6564407180900866	-0.174115928827774	0.1744731890825145	0.01265185992925215	-0.05403877597855723	-0.7186489776038785	-0.2588374987394603	-0.4419174192195081	2.16752800928507	-0.03884309992314981	0.5330755896274449	-0.575302949498643	1.537385224897897	1.537385224897826	-0.002966699348100197	0.000293386103291361	0.1666162438917314	-0.02354084341267242	-0.2635967287095054	0.0188730544833496	-0.02002469604028593	-0.1921407563172711	0.1461644022435302	0.045876265033164	0.2344037375248622	7.250879754178297	-23.8611677567706	6.448663915308792	-4.568575927380746	-621.3568572415843	-61.17825164287269	-30.14600363304081	0.7156008174806355	0.6775050663999372	-0.1032139665880042	-1.933185266578778	0.4491448439371883	-0.3963659478714177	1.735439346451228	-1.311809200634345	-1.311809200650138	-0.01038128050967012	0.008195544883621834	-0.06778093657999201	0.4369430850399193	-4.131022877450133e-08	-7.406295884238991e-07	2.6154445629992e-07	-9.244813930334613e-08	-1.430332866370159e-07	4.403006349054874e-10	-1.333188133770835e-07
